<svg width="60" height="20" viewBox="0 0 60 20" fill="none" xmlns="http://www.w3.org/2000/svg">
<path fill-rule="evenodd" clip-rule="evenodd" d="M42.7812 4.80505C44.1188 4.80505 45.2029 3.7296 45.2029 2.40343C45.2029 1.07648 44.1188 0 42.7812 0C41.4453 0 40.3616 1.07648 40.3616 2.40343C40.3616 3.7296 41.4453 4.80505 42.7812 4.80505ZM24.2343 6.10204C24.125 6.37446 23.3385 8.57932 21.4364 10.8645V1.09352L16.3682 2.08764V19.7986H21.4364V14.324C22.9043 16.509 23.6291 19.7986 23.6291 19.7986H29.6997C29.0993 17.3211 26.4725 12.7528 26.4725 12.7528C28.83 9.78646 29.8655 6.6257 30.0302 6.10204H24.2343ZM37.5583 5.91717C33.0188 6.06176 30.7144 8.08304 30.7144 12.1011V19.7986H35.6668V13.5215C35.6668 11.1155 35.9842 10.0842 38.8609 9.9858V5.98766C38.3768 5.88566 37.5583 5.91717 37.5583 5.91717ZM7.86834 8.05231C7.24757 8.01177 5.81037 7.91959 5.81037 6.63551C5.81037 5.08598 7.87953 5.08598 8.65562 5.08598C10.0202 5.08598 11.7876 5.48621 13.0497 5.86088C13.0497 5.86088 13.7537 6.10721 14.3529 6.35948L14.4086 6.37446V2.13076L14.3321 2.10829C12.8426 1.5911 11.1106 1.09352 7.89956 1.09352C2.36307 1.09352 0.401367 4.29457 0.401367 7.03677C0.401367 8.61754 1.08406 12.3378 7.42474 12.767C7.96226 12.7998 9.38879 12.8814 9.38879 14.2083C9.38879 15.3039 8.22087 15.95 6.25656 15.95C4.10389 15.95 2.01574 15.4051 0.747398 14.8885V19.2592C2.64614 19.7531 4.78659 20 7.29518 20C12.7086 20 15.1332 16.9714 15.1332 13.9697C15.1332 10.5663 12.4201 8.35494 7.86834 8.05231ZM40.3262 19.7986H45.2386V6.11754H40.3262V19.7986ZM54.4883 1.96576V19.7986H59.4014V1.09352L54.4883 1.96576ZM47.3194 1.96576L52.2279 1.09352V19.7986H47.3194V1.96576Z" fill="black"/>
</svg>
