<svg width="180" height="20" viewBox="0 0 180 20" fill="none" xmlns="http://www.w3.org/2000/svg">
<path fill-rule="evenodd" clip-rule="evenodd" d="M150.461 19.8175L153.445 4.18555H157.224L157.622 5.7272C158.302 4.95637 159.595 4.18555 161.791 4.18555L160.606 8.25517C159.537 8.25517 157.506 7.98165 156.213 12.6563L154.862 19.8093H150.469L150.461 19.8175Z" fill="black"/>
<path fill-rule="evenodd" clip-rule="evenodd" d="M92.583 0.215332H96.9345L96.0393 4.35955H98.3849L97.6058 7.73294H95.3762L94.1495 14.057C93.9258 15.2588 94.0418 16.3446 96.5532 15.9634L96.2714 19.1213C95.3265 19.718 94.0418 19.8838 93.0306 19.8838C92.0194 19.8838 88.7372 19.287 89.5743 15.0351L92.583 0.215332Z" fill="black"/>
<path fill-rule="evenodd" clip-rule="evenodd" d="M111.439 12.8557C111.945 10.3526 113.113 4.13623 105.472 4.13623C98.443 4.13623 97.5478 10.9493 97.382 11.9274C97.2163 12.9054 97.1002 19.8262 104.634 19.8262C106.474 19.8843 109.152 19.6605 110.213 19.1217L110.884 15.9058C110.213 16.0716 107.701 16.2871 105.969 16.2871C104.237 16.2871 101.452 16.3948 101.949 12.8557H111.439V12.8557ZM102.397 9.36624C102.372 9.4657 102.339 9.6066 102.289 9.79723C102.322 9.66462 102.363 9.49885 102.397 9.36624ZM102.256 9.90498L102.222 10.0293C102.728 8.06495 103.955 7.19466 105.679 7.19466C107.403 7.19466 107.908 8.50424 107.635 10.0293H102.222L102.256 9.90498Z" fill="black"/>
<path fill-rule="evenodd" clip-rule="evenodd" d="M88.4469 7.84947L89.4498 4.69158C87.386 3.92904 85.7697 4.09481 85.1564 4.09481C84.543 4.09481 79.3213 4.0285 78.5173 7.79974C77.904 10.6841 78.9898 11.8859 80.0258 12.3252C81.7001 13.0297 82.6533 13.6845 83.5401 14.1238C84.6425 14.6626 84.4436 16.4695 82.9848 16.4695C82.3134 16.4695 79.4125 16.7927 77.2409 16.0882L76.6276 19.3041C78.6334 19.8511 80.2496 19.8511 81.7581 19.8511C82.819 19.8511 88.0076 20.1247 88.7287 15.4417C89.0851 13.1541 88.0573 12.118 87.2202 11.629C86.3831 11.082 84.9906 10.3194 84.0954 9.93816C83.2003 9.55689 82.5289 8.08984 84.1535 7.65055C85.1564 7.5428 87.2202 7.5428 88.4469 7.86605C88.4469 7.86605 87.2202 7.53451 88.4469 7.86605V7.84947Z" fill="black"/>
<path fill-rule="evenodd" clip-rule="evenodd" d="M60.2166 19.8342L63.8387 0.978027H56.7023L51.3977 12.4244L50.5606 0.978027H43.5817L39.8436 19.8342H44.1951L46.8722 6.20803L48.0492 19.8342H52.1768L58.2605 6.53957L55.6911 19.8342H60.2166Z" fill="black"/>
<path d="M65.1482 4.60873L65.7201 4.50098C65.5129 4.54242 65.2891 4.58386 65.1482 4.60873Z" fill="black"/>
<path d="M65.0157 4.63326L65.1484 4.6084L65.0157 4.63326Z" fill="black"/>
<path d="M65.9438 4.4511L66.2091 4.40137L65.9438 4.4511Z" fill="black"/>
<path d="M65.7119 4.50091L65.9191 4.45947L65.7119 4.50091Z" fill="black"/>
<path d="M70.7013 4.08643C69.3586 4.14444 67.8584 4.08643 65.0071 4.63346L64.3358 8.01515C65.3967 7.9074 68.2396 7.46811 69.7481 7.52613C71.2566 7.58415 72.9309 7.36036 72.4253 9.70599C71.3063 9.81374 63.4986 8.6202 62.272 15.1515C61.7664 18.3674 64.6176 20.0002 66.8472 19.8925C69.0768 19.7847 69.6901 19.5112 70.4775 18.9642L71.0328 19.8345H75.1025L76.8347 11.3388C77.2823 9.21697 78.0034 4.09471 70.693 4.09471L70.7013 4.08643ZM71.3727 14.5464C71.0909 15.9638 69.027 16.8672 67.6346 16.345C66.1841 15.798 66.5737 14.1652 67.9661 13.2369C69.3586 12.3086 70.9831 12.7478 71.7042 12.8556L71.3727 14.5464Z" fill="black"/>
<path fill-rule="evenodd" clip-rule="evenodd" d="M135.55 5.33776C134.431 4.68298 133.652 4.57523 132.202 4.57523C130.751 4.57523 127.511 5.92624 126.897 9.74721C126.168 14.2727 129.351 16.5023 133.818 15.0352L135.103 18.8479C133.652 19.5027 132.202 19.826 129.798 19.826C125.281 19.826 120.366 15.9055 122.596 7.94862C124.245 2.0887 129.409 -0.0580086 132.426 0.0497411C135.998 0.182356 137.283 1.35931 138.402 2.55285L135.559 5.32948L135.55 5.33776Z" fill="black"/>
<path fill-rule="evenodd" clip-rule="evenodd" d="M173.826 0L172.657 5.99254C171.82 5.39577 170.552 4.36801 169.251 4.14422C167.56 3.84584 163.109 3.70493 160.996 10.7915C159.578 15.5242 162.446 19.8342 165.571 19.8342C167.021 19.7845 168.472 19.1794 169.367 18.5827L169.922 19.8342H174.614L178.401 0H173.826ZM171.091 12.3663C170.312 14.2727 169.309 15.5242 167.684 15.5242C166.176 15.5242 164.841 13.8334 165.455 11.6038C166.391 8.18898 169.475 6.8131 170.809 8.55367C171.29 9.18359 171.539 10.949 171.091 12.3663Z" fill="black"/>
<path d="M138.783 4.60878C138.874 4.5922 139.015 4.56733 139.172 4.53418L138.783 4.60878Z" fill="black"/>
<path d="M139.164 4.53413L139.355 4.50098L139.164 4.53413Z" fill="black"/>
<path d="M138.675 4.63328L138.783 4.6167L138.675 4.63328Z" fill="black"/>
<path d="M144.369 4.08643C143.027 4.14444 141.526 4.08643 138.675 4.63346L138.004 8.01515C139.065 7.9074 141.908 7.46811 143.416 7.52613C144.925 7.58415 146.599 7.36036 146.093 9.70599C144.974 9.81374 137.167 8.6202 135.94 15.1515C135.434 18.3674 138.286 20.0002 140.515 19.8925C142.745 19.7847 143.358 19.5112 144.145 18.9642L144.701 19.8345H148.77L150.503 11.3388C150.95 9.21697 151.671 4.09471 144.361 4.09471L144.369 4.08643ZM145.041 14.5464C144.759 15.9638 142.703 16.8672 141.303 16.345C139.852 15.798 140.242 14.1652 141.634 13.2369C143.027 12.3086 144.651 12.7478 145.372 12.8556L145.032 14.5464H145.041Z" fill="black"/>
<path d="M139.355 4.50083L139.869 4.40137C139.786 4.41794 139.62 4.4511 139.355 4.50083Z" fill="black"/>
<path fill-rule="evenodd" clip-rule="evenodd" d="M111.572 19.8339L114.531 4.35938H118.269L118.659 5.88445C119.33 5.12191 120.615 4.35938 122.786 4.35938L121.667 8.44557C120.606 8.44557 118.543 8.12233 117.258 12.7473L115.915 19.8339H111.564H111.572Z" fill="black"/>
<path d="M12.6659 10.0538C12.6659 7.00365 14.1081 4.11928 16.578 2.2378C12.1271 -1.16046 5.68702 -0.406212 2.1893 3.91206C-1.30842 8.23034 -0.529305 14.4798 3.9133 17.8698C7.62652 20.7044 12.8565 20.7044 16.578 17.8698C14.1081 15.9883 12.6576 13.1039 12.6659 10.0455V10.0538Z" fill="black"/>
<path d="M33.155 10.0538C33.155 15.549 28.5715 19.9999 22.9105 19.9999C20.6146 19.9999 18.385 19.254 16.5781 17.8698C21.029 14.4798 21.7998 8.22204 18.3021 3.90376C17.7965 3.28213 17.2163 2.71852 16.5781 2.2295C21.029 -1.16876 27.4691 -0.414512 30.9669 3.90376C32.3842 5.66091 33.155 7.8242 33.155 10.0538Z" fill="black"/>
</svg>
