<svg width="110" height="22" viewBox="0 0 110 22" fill="none" xmlns="http://www.w3.org/2000/svg">
<path d="M6.01294 16.4924V21.4999L12.0125 12.8662L6.01294 16.4924Z" fill="#2F3030"/>
<path d="M6.01294 8.90527V15.3326L12.0125 11.6968L6.01294 8.90527Z" fill="black"/>
<path d="M6.01294 1.50049V8.90686L12.0125 11.6983L6.01294 1.50049Z" fill="#2F3030"/>
<path d="M6.01177 16.4924V21.4999L0.012207 12.8662L6.01177 16.4924Z" fill="#828384"/>
<path d="M6.01177 8.90527V15.3326L0.012207 11.6968L6.01177 8.90527Z" fill="#343535"/>
<path d="M6.01177 1.50049V8.90686L0.012207 11.6983L6.01177 1.50049Z" fill="#828384"/>
<path d="M18.0617 8.74834C17.2578 9.56646 16.8617 10.6346 16.8617 11.9388C16.8617 13.2647 17.3245 14.3758 17.9417 15.0413L17.9418 15.0413C18.6816 15.838 19.7154 16.5836 21.1373 16.5849C23.0615 16.6746 24.2985 15.5708 24.879 14.7079L24.8793 14.7076C24.957 14.5914 24.9852 14.4481 24.9532 14.3096C24.9238 14.1779 24.843 14.0654 24.7309 13.994L24.7287 13.9917L24.7118 13.9819C24.5994 13.9167 24.465 13.8945 24.3408 13.9126C24.2163 13.9307 24.0895 13.9915 24.0066 14.107C23.4131 14.9322 22.5822 15.5666 21.1966 15.5647C19.2566 15.5609 18.065 13.8782 17.9013 12.4407L17.9804 12.4407L18.6346 12.4408L20.7316 12.4411C22.3315 12.4415 24.1369 12.4423 24.9596 12.4438H24.9599C25.0982 12.4438 25.2313 12.3874 25.3281 12.288L25.3289 12.2872C25.4244 12.1877 25.4766 12.0536 25.4722 11.9147L25.4722 11.9142C25.4334 10.7878 25.1689 9.70661 24.1907 8.66105C23.4314 7.84822 22.4603 7.34902 21.1398 7.34902C19.8111 7.34902 18.8509 7.94526 18.0617 8.74834ZM18.0617 8.74834L18.1687 8.85347L18.0617 8.74834ZM21.1419 8.19364L21.1429 8.34364C21.7342 8.33969 22.1546 8.45324 22.4891 8.6303C22.8258 8.80854 23.0853 9.05609 23.3506 9.33874L23.3507 9.3388C23.8441 9.86377 24.2518 10.6318 24.3429 11.4604H17.9408C18.0674 10.604 18.4558 9.72643 18.9884 9.25876C19.5781 8.74101 20.2489 8.35042 21.143 8.34364L21.1419 8.19364ZM21.1419 8.19364C22.3666 8.18546 22.9241 8.66524 23.46 9.23607L17.7892 11.4604C17.9159 10.5744 18.3171 9.64854 18.8894 9.14605C19.4941 8.61511 20.1984 8.2008 21.1419 8.19364Z" fill="black" stroke="black" stroke-width="0.3"/>
<path d="M54.4854 8.19364L54.4864 8.34364C55.0777 8.33969 55.4981 8.45324 55.8326 8.6303C56.1693 8.80854 56.4288 9.05609 56.6941 9.33874L56.6942 9.3388C57.1876 9.86377 57.5953 10.6318 57.6864 11.4604H51.2843C51.4109 10.604 51.7993 9.72643 52.3319 9.25876C52.9216 8.74101 53.5924 8.35042 54.4865 8.34364L54.4854 8.19364ZM54.4854 8.19364C55.7101 8.18546 56.2676 8.66524 56.8035 9.23607C57.3192 9.78476 57.7458 10.5889 57.8373 11.4604H51.1328C51.2594 10.5744 51.6606 9.64854 52.2329 9.14605C52.8376 8.61511 53.5419 8.2008 54.4854 8.19364ZM58.2967 14.3096C58.2673 14.1779 58.1865 14.0654 58.0744 13.9939L58.0721 13.9917L58.0553 13.9819C57.9429 13.9167 57.8086 13.8945 57.6843 13.9126C57.5598 13.9307 57.433 13.9915 57.3501 14.107C56.7567 14.9322 55.9257 15.5666 54.5401 15.5647C52.6001 15.5609 51.4085 13.8782 51.2448 12.4407L51.3239 12.4407L51.9781 12.4408L54.0751 12.4411C55.675 12.4415 57.4804 12.4423 58.3031 12.4438H58.3034C58.4417 12.4438 58.5748 12.3874 58.6716 12.288L58.6724 12.2872C58.7679 12.1877 58.8201 12.0536 58.8158 11.9147L58.8157 11.9142C58.7769 10.7878 58.5124 9.70661 57.5342 8.66105C56.7749 7.84822 55.8039 7.34902 54.4833 7.34902C53.1546 7.34902 52.1944 7.94526 51.4052 8.74834C50.6013 9.56646 50.2052 10.6346 50.2052 11.9388C50.2052 13.2647 50.668 14.3758 51.2852 15.0413L51.2853 15.0413C52.0251 15.838 53.0589 16.5836 54.4808 16.5849C56.4051 16.6746 57.642 15.5708 58.2226 14.7079L58.2228 14.7076C58.3005 14.5914 58.3287 14.4481 58.2967 14.3096ZM58.5642 12.1833C58.4954 12.2539 58.401 12.2938 58.3034 12.2938L57.4246 8.76345C58.3712 9.77519 58.6278 10.8176 58.6658 11.9194C58.6689 12.0176 58.6319 12.1127 58.5642 12.1833Z" fill="black" stroke="black" stroke-width="0.3"/>
<path d="M78.9283 14.3096C78.8989 14.1779 78.8181 14.0654 78.706 13.9939L78.7037 13.9917L78.6869 13.9819C78.5745 13.9167 78.4401 13.8945 78.3159 13.9126C78.1914 13.9307 78.0646 13.9915 77.9817 14.107C77.3882 14.9322 76.5573 15.5666 75.1717 15.5647C73.2317 15.5609 72.0401 13.8782 71.8764 12.4407L71.9554 12.4407L72.6095 12.4408L74.7061 12.4411C76.3058 12.4415 78.111 12.4423 78.9337 12.4438H78.934C79.0731 12.4438 79.2062 12.3875 79.3032 12.288L79.304 12.2872C79.3995 12.1877 79.4517 12.0536 79.4473 11.9147L79.4473 11.9142C79.4085 10.7878 79.144 9.70661 78.1658 8.66105C77.4065 7.84822 76.4354 7.34902 75.1149 7.34902C73.7862 7.34902 72.826 7.94526 72.0368 8.74834L72.0368 8.74841C71.234 9.56644 70.8368 10.6345 70.8368 11.9388C70.8368 13.2647 71.2996 14.3758 71.9168 15.0413L71.9169 15.0413C72.6567 15.838 73.6905 16.5836 75.1124 16.5849C77.0366 16.6746 78.2736 15.5708 78.8541 14.7079L78.8544 14.7076C78.9321 14.5914 78.9603 14.4481 78.9283 14.3096ZM79.1958 12.1833C79.127 12.2539 79.0325 12.2938 78.934 12.2938L78.0562 8.76345C79.0028 9.77519 79.2594 10.8176 79.2974 11.9194C79.3005 12.0176 79.2635 12.1127 79.1958 12.1833ZM77.3246 9.33863L77.3248 9.3388C77.8182 9.86377 78.2259 10.6318 78.317 11.4604H71.9147C72.0405 10.6042 72.4298 9.7265 72.9625 9.25876C73.5522 8.74101 74.223 8.35042 75.1171 8.34364L75.1159 8.1939L75.1169 8.34364C75.7082 8.33969 76.1289 8.45324 76.4636 8.63031C76.8004 8.80854 77.0599 9.05608 77.3246 9.33863Z" fill="black" stroke="black" stroke-width="0.3"/>
<path d="M32.2294 15.9786V8.49609H34.0649C34.3269 8.49609 34.5414 8.28314 34.5414 8.02078C34.5414 7.75841 34.3269 7.54546 34.0649 7.54546H32.2294V4.85461C32.2294 4.59224 32.015 4.3793 31.753 4.3793H31.7458C31.4766 4.3793 31.2559 4.59838 31.2559 4.86791V7.54444H29.481C29.219 7.54444 29.0045 7.75738 29.0045 8.01975C29.0045 8.28212 29.219 8.49506 29.481 8.49506H31.2559V15.9786C31.2559 16.2474 31.4758 16.4642 31.7427 16.4642C32.0111 16.4642 32.2294 16.2458 32.2294 15.9786Z" fill="black" stroke="black" stroke-width="0.3"/>
<path d="M42.9493 7.45098L42.9493 7.45098C42.2578 7.3558 41.5774 7.42209 40.954 7.70339C40.4528 7.92955 39.9948 8.29183 39.6006 8.80966V0.825311C39.6006 0.562942 39.3861 0.35 39.1241 0.35H39.1169C38.8477 0.35 38.6271 0.569081 38.6271 0.838611V15.9789C38.6271 16.2461 38.8454 16.4645 39.1138 16.4645C39.3807 16.4645 39.6006 16.2477 39.6006 15.9789V10.8609C39.6006 10.2044 40.0217 9.49957 40.661 8.9987C41.2981 8.49948 42.1223 8.2268 42.8941 8.39866C43.8899 8.62043 44.9068 9.6111 44.9029 11.2267V11.2271V15.9779C44.9029 16.2451 45.1212 16.4634 45.3896 16.4634C45.6565 16.4634 45.8764 16.2467 45.8764 15.9779V11.2474C45.9256 10.4918 45.6894 9.61571 45.1981 8.89357C44.7042 8.16757 43.946 7.58826 42.9493 7.45098Z" fill="black" stroke="black" stroke-width="0.3"/>
<path d="M86.6817 16.6086L86.6817 16.6087C87.3731 16.7038 88.0536 16.6375 88.6769 16.3562C89.1782 16.1301 89.6361 15.7678 90.0304 15.25V15.9813C90.0304 16.2437 90.2448 16.4566 90.5068 16.4566H90.514C90.7832 16.4566 91.0038 16.2375 91.0038 15.968V8.0807C91.0038 7.81352 90.7856 7.59516 90.5171 7.59516C90.2503 7.59516 90.0304 7.8119 90.0303 8.0807L90.0304 8.08218L90.0714 12.2596C90.0714 12.2599 90.0714 12.2601 90.0714 12.2604C90.0712 13.3059 89.6616 14.2441 89.0431 14.8736C88.4247 15.503 87.6056 15.8178 86.7763 15.6422L86.7763 15.6422C85.7759 15.4306 84.7251 14.4446 84.728 12.8307V12.8305V8.07969C84.728 7.8125 84.5097 7.59414 84.2413 7.59414C83.9744 7.59414 83.7545 7.81088 83.7545 8.07969L83.7545 12.8151L83.7545 12.8152C83.7551 13.7256 83.9869 14.6035 84.4708 15.2909C84.9568 15.9814 85.6926 16.4724 86.6817 16.6086Z" fill="black" stroke="black" stroke-width="0.3"/>
<path d="M106.226 7.44958L106.226 7.44957C104.939 7.2731 103.331 7.78552 102.544 9.45023C102.075 8.47563 101.185 7.62101 99.9438 7.44959L99.9437 7.44958C99.2539 7.35462 98.5709 7.41081 97.9445 7.68214C97.4402 7.90054 96.9792 8.25549 96.5837 8.77151V8.03909C96.5837 7.77672 96.3693 7.56378 96.1073 7.56378H96.1001C95.8309 7.56378 95.6103 7.78286 95.6103 8.05239V15.9397C95.6103 16.2069 95.8285 16.4252 96.097 16.4252C96.3638 16.4252 96.5837 16.2085 96.5837 15.9397L96.5837 15.9382L96.5427 11.7607C96.5427 11.7605 96.5427 11.7603 96.5427 11.76C96.5429 10.7149 96.9549 9.78667 97.5757 9.16669C98.1964 8.54682 99.019 8.24015 99.8501 8.41602C100.812 8.61991 101.819 9.53927 101.893 11.0422V15.9407C101.893 15.9592 101.896 15.9747 101.897 15.9844L101.899 15.9913C101.903 16.1352 101.983 16.2534 102.079 16.3314C102.177 16.4118 102.307 16.4641 102.439 16.4641H102.44C102.706 16.4641 102.926 16.2473 102.926 15.9785V14.8352C102.929 14.0843 102.932 13.0939 102.932 12.3306C102.932 11.1772 103.194 10.1076 103.724 9.37525C104.247 8.65288 105.038 8.2483 106.142 8.41853C107.141 8.5727 108.185 9.60807 108.182 11.2285V11.2288V15.9796C108.182 16.2468 108.401 16.4651 108.669 16.4651C108.936 16.4651 109.156 16.2484 109.156 15.9796V11.2489C109.204 10.492 108.967 9.61511 108.475 8.89254C107.981 8.16618 107.222 7.58686 106.226 7.44958Z" fill="black" stroke="black" stroke-width="0.3"/>
<path d="M67.618 7.91903C67.5893 7.8306 67.5354 7.75128 67.4622 7.69177L67.4622 7.69177L67.4615 7.69117C67.3369 7.59121 67.1857 7.58757 67.0812 7.59071M67.0812 7.59071C67.0813 7.5907 67.0814 7.5907 67.0815 7.5907L67.0853 7.74065L67.0808 7.59072C67.0809 7.59071 67.081 7.59071 67.0812 7.59071Z" fill="black" stroke="black" stroke-width="0.3"/>
</svg>
