<svg width="97" height="20" viewBox="0 0 97 20" fill="none" xmlns="http://www.w3.org/2000/svg">
<path d="M29.374 6.05158C30.1869 6.05158 30.8892 6.19675 31.4796 6.48208C32.0726 6.7702 32.5616 7.15843 32.9544 7.64651C33.3413 8.13681 33.6296 8.71026 33.8158 9.3677C34.0006 10.0265 34.0932 10.7354 34.0932 11.4935C34.0932 12.6588 33.8791 13.7593 33.447 14.7966C33.0151 15.8356 32.4289 16.7369 31.6834 17.5056C30.9385 18.2735 30.059 18.8786 29.0445 19.3261C28.0317 19.7735 26.9308 19.9971 25.7482 19.9971C25.5954 19.9971 25.3267 19.993 24.947 19.9849C24.5673 19.9771 24.1307 19.9382 23.6423 19.8723C23.1505 19.8036 22.6306 19.7026 22.0811 19.5669C21.5322 19.434 21.0112 19.2474 20.5205 19.0102L24.9096 0.611565L28.841 0.00390625L27.2695 6.5327C27.606 6.38141 27.945 6.26405 28.2834 6.17895C28.6224 6.09524 28.9857 6.05158 29.374 6.05158ZM26.0766 16.8863C26.6684 16.8863 27.2266 16.7411 27.7507 16.4558C28.2762 16.1701 28.73 15.7847 29.1097 15.3044C29.4897 14.8219 29.7902 14.2785 30.0096 13.6711C30.229 13.064 30.3397 12.4305 30.3397 11.7714C30.3397 10.9618 30.2042 10.3302 29.9338 9.87357C29.6634 9.41887 29.1632 9.18999 28.4367 9.18999C28.1987 9.18999 27.8923 9.23532 27.5117 9.31625C27.1304 9.40191 26.7889 9.58045 26.483 9.8491L24.8093 16.7828C24.9102 16.8009 24.9997 16.8176 25.0758 16.8334C25.1505 16.8504 25.2327 16.8626 25.3147 16.8712C25.4017 16.881 25.5006 16.886 25.6211 16.886C25.7409 16.886 25.8909 16.8863 26.0766 16.8863V16.8863V16.8863Z" fill="black"/>
<path d="M38.1711 19.6439H34.4165L37.5873 6.33246H41.3682L38.1711 19.6439ZM39.9982 4.71055C39.4741 4.71055 38.9991 4.55481 38.5773 4.24306C38.1524 3.93297 37.942 3.45602 37.942 2.81276C37.942 2.45901 38.0139 2.12723 38.1566 1.81436C38.3016 1.50177 38.4914 1.23285 38.7287 1.00397C38.9656 0.777313 39.2405 0.595988 39.5525 0.459439C39.8664 0.324836 40.2003 0.257812 40.5561 0.257812C41.0799 0.257812 41.5524 0.413551 41.9759 0.725307C42.3974 1.03873 42.6096 1.51596 42.6096 2.1556C42.6096 2.51046 42.5379 2.84391 42.3938 3.15622C42.2505 3.46881 42.0609 3.73746 41.8237 3.96634C41.5884 4.19328 41.3113 4.37404 40.9999 4.50948C40.6857 4.64603 40.3528 4.71055 39.9982 4.71055Z" fill="black"/>
<path d="M44.6582 3.01663L48.5913 2.40869L47.6256 6.33247H51.8371L51.0766 9.41916H46.8902L45.775 14.0752C45.6722 14.4634 45.6139 14.8258 45.5975 15.1629C45.5791 15.5013 45.622 15.7919 45.7235 16.0367C45.8244 16.282 46.0056 16.4711 46.269 16.6048C46.5308 16.7405 46.9055 16.809 47.3975 16.809C47.8026 16.809 48.1971 16.7706 48.5787 16.6941C48.9581 16.6193 49.3423 16.515 49.7315 16.3782L50.0114 19.2644C49.504 19.4498 48.9545 19.6095 48.3624 19.7441C47.7697 19.8801 47.0677 19.9457 46.2565 19.9457C45.0898 19.9457 44.1854 19.773 43.5412 19.429C42.8975 19.0825 42.4425 18.6091 42.1707 18.0095C41.9022 17.4124 41.7821 16.7239 41.8155 15.9482C41.8504 15.1709 41.9677 14.3536 42.1707 13.4931L44.6582 3.01663Z" fill="black"/>
<path d="M51.6716 14.3303C51.6716 13.1837 51.8576 12.1027 52.2292 11.0904C52.6005 10.0769 53.1352 9.19118 53.8291 8.43084C54.5205 7.67439 55.3627 7.07508 56.354 6.63484C57.3409 6.1971 58.446 5.97656 59.6634 5.97656C60.4253 5.97656 61.1061 6.04859 61.7052 6.19265C62.3065 6.33782 62.8507 6.52554 63.343 6.76138L62.0481 9.69872C61.7097 9.56189 61.3587 9.44119 60.9954 9.3319C60.6319 9.2201 60.1884 9.16643 59.6637 9.16643C58.4103 9.16643 57.4195 9.59721 56.6819 10.4566C55.9473 11.3162 55.5776 12.4734 55.5776 13.9251C55.5776 14.7853 55.7636 15.4808 56.1371 16.0131C56.5085 16.5454 57.1951 16.8099 58.1914 16.8099C58.6832 16.8099 59.1577 16.7587 59.6124 16.6589C60.0704 16.5576 60.4747 16.43 60.8309 16.2795L61.1114 19.2906C60.6363 19.4744 60.1125 19.6404 59.538 19.7856C58.9623 19.926 58.277 19.9986 57.4822 19.9986C56.4329 19.9986 55.545 19.8454 54.8188 19.5439C54.092 19.2377 53.4915 18.8314 53.0184 18.3164C52.5428 17.7999 52.2013 17.1973 51.9903 16.5053C51.7792 15.8142 51.6716 15.0878 51.6716 14.3303Z" fill="black"/>
<path d="M68.3512 19.9976C67.4552 19.9976 66.6766 19.8616 66.0164 19.5919C65.3579 19.3221 64.8124 18.9436 64.3811 18.4533C63.9493 17.965 63.6259 17.3868 63.4043 16.7199C63.1826 16.0538 63.0764 15.316 63.0764 14.5076C63.0764 13.4936 63.2398 12.4796 63.5696 11.4687C63.8977 10.4556 64.385 9.54506 65.0295 8.73606C65.6693 7.92594 66.4583 7.26321 67.3875 6.74705C68.3155 6.23367 69.3832 5.97559 70.582 5.97559C71.4621 5.97559 72.2363 6.11241 72.9056 6.3819C73.5722 6.6511 74.1211 7.03238 74.5549 7.52073C74.9842 8.01159 75.3101 8.58727 75.5292 9.25472C75.75 9.91967 75.8593 10.6597 75.8593 11.4684C75.8593 12.4793 75.6982 13.4933 75.3787 14.507C75.0586 15.5162 74.5842 16.4287 73.9577 17.2394C73.3324 18.0484 72.5505 18.7106 71.6115 19.2251C70.6737 19.7393 69.5862 19.9974 68.3515 19.9974H68.3512V19.9976ZM70.228 9.16573C69.6715 9.16573 69.1792 9.32703 68.7579 9.64546C68.3348 9.96778 67.9796 10.3727 67.6933 10.8613C67.4039 11.3516 67.1893 11.8867 67.0443 12.4682C66.9004 13.0511 66.8302 13.6021 66.8302 14.1254C66.8302 14.9701 66.9665 15.6281 67.2353 16.1014C67.5076 16.5722 67.9963 16.8092 68.7072 16.8092C69.2659 16.8092 69.7551 16.6493 70.1792 16.3272C70.5996 16.0077 70.955 15.6025 71.2435 15.113C71.531 14.6249 71.7476 14.0882 71.8925 13.5061C72.0344 12.9251 72.1067 12.3709 72.1067 11.8483C72.1067 11.0059 71.9709 10.3463 71.6999 9.87378C71.4292 9.40267 70.9383 9.16573 70.228 9.16573Z" fill="black"/>
<path d="M79.9526 19.6439H76.1943L79.3655 6.33246H83.1479L79.9526 19.6439ZM81.7769 4.71055C81.2531 4.71055 80.7783 4.55481 80.3571 4.24306C79.9342 3.93297 79.722 3.45602 79.722 2.81276C79.722 2.45901 79.7948 2.12723 79.9381 1.81436C80.0814 1.50177 80.272 1.23285 80.5096 1.00397C80.7454 0.777313 81.0225 0.595988 81.3339 0.459439C81.6459 0.324836 81.9801 0.257812 82.3345 0.257812C82.8594 0.257812 83.3336 0.413551 83.756 0.725307C84.1783 1.03873 84.3916 1.51596 84.3916 2.1556C84.3916 2.51046 84.316 2.84391 84.1741 3.15622C84.0322 3.46881 83.8413 3.73746 83.6049 3.96634C83.3668 4.19328 83.093 4.37404 82.7811 4.50948C82.4669 4.64603 82.1335 4.71055 81.7769 4.71055Z" fill="black"/>
<path d="M85.8525 6.93904C86.1377 6.85617 86.4561 6.75604 86.8021 6.64731C87.1497 6.53829 87.5375 6.43734 87.9713 6.34612C88.4 6.25184 88.884 6.17592 89.4162 6.11668C89.9484 6.05633 90.555 6.02686 91.2288 6.02686C93.2093 6.02686 94.5744 6.60198 95.328 7.74916C96.0812 8.89662 96.2114 10.4665 95.723 12.4566L93.9954 19.644H90.2157L91.8898 12.6079C91.9918 12.1685 92.0721 11.7436 92.1312 11.3286C92.1911 10.9176 92.1878 10.555 92.1178 10.2413C92.0512 9.93117 91.894 9.67754 91.65 9.48064C91.4022 9.28736 91.0278 9.19002 90.5201 9.19002C90.0303 9.19002 89.5324 9.24258 89.0239 9.34381L86.5629 19.6434H82.7815L85.8525 6.93904Z" fill="black"/>
<path fill-rule="evenodd" clip-rule="evenodd" d="M7.59761 19.7005C12.9683 21.0366 18.4073 17.7766 19.7463 12.4192C21.085 7.06178 17.8174 1.63512 12.4464 0.2991C7.0774 -1.03608 1.63841 2.22414 0.300268 7.58211C-1.03927 12.939 2.22887 18.3651 7.59761 19.7005ZM12.2367 6.05221C13.6253 6.52971 14.6406 7.245 14.4413 8.57545C14.2969 9.54965 13.7558 10.021 13.0371 10.1865C14.0234 10.6991 14.5257 11.4847 14.0474 12.8474C13.4536 14.5394 12.0435 14.6824 10.1681 14.3283L9.71289 16.1477L8.6131 15.8743L9.06222 14.0794C8.77702 14.0088 8.4857 13.9337 8.18573 13.8525L7.73467 15.6563L6.63627 15.3829L7.09152 13.5599C6.99003 13.534 6.88789 13.5074 6.78503 13.4806C6.62766 13.4396 6.46859 13.3982 6.30759 13.358L4.87634 13.0023L5.42247 11.7461C5.42247 11.7461 6.2326 11.9614 6.22173 11.9455C6.53313 12.0226 6.6714 11.8198 6.72576 11.6849L7.44501 8.80823C7.48528 8.81792 7.52416 8.82762 7.56084 8.83676L7.56127 8.83687C7.51778 8.81935 7.47791 8.80823 7.44697 8.80016L7.9602 6.74663C7.97358 6.51358 7.89301 6.21935 7.44752 6.10838C7.46509 6.09726 6.64882 5.91037 6.64882 5.91037L6.94154 4.73844L8.45838 5.11638L8.45726 5.12222C8.68503 5.1784 8.92004 5.23235 9.15923 5.28658L9.61002 3.48474L10.7092 3.75812L10.2677 5.52464C10.5629 5.59166 10.8598 5.65952 11.1489 5.73155L11.5871 3.97643L12.6872 4.24981L12.2367 6.05221ZM8.75729 12.5878C9.65459 12.8242 11.6165 13.3411 11.9283 12.091C12.2478 10.8129 10.3463 10.3871 9.41788 10.1792C9.31399 10.1559 9.22229 10.1354 9.14724 10.1167L8.54313 12.5323C8.6046 12.5476 8.67665 12.5665 8.75729 12.5878ZM9.60386 9.05808C10.3519 9.25729 11.984 9.69196 12.2685 8.55571C12.5585 7.394 10.9738 7.04373 10.1988 6.87244C10.1112 6.85309 10.034 6.83603 9.97104 6.82033L9.42351 9.01096C9.47521 9.02382 9.53588 9.03998 9.60386 9.05808Z" fill="black"/>
</svg>
