<svg width="62" height="24" viewBox="0 0 62 24" fill="none" xmlns="http://www.w3.org/2000/svg">
<path d="M61.5593 22.1778C60.0269 22.1778 58.4944 22.1778 56.9392 22.1778C56.7702 21.3586 56.5888 20.5572 56.4457 19.7488C56.3862 19.4134 56.2798 19.2834 55.9085 19.2882C54.056 19.3122 52.2029 19.3063 50.3501 19.2915C50.0696 19.2892 49.9582 19.3827 49.8728 19.6404C49.6176 20.4105 49.3384 21.1729 49.0528 21.9323C49.0141 22.0354 48.8856 22.1769 48.7976 22.1776C47.1277 22.1922 45.4574 22.1884 43.7393 22.1884C44.0524 21.4279 44.3489 20.7018 44.6498 19.9777C46.8032 14.7968 48.9573 9.6163 51.1113 4.43577C51.5778 3.31371 52.2771 2.84386 53.4802 2.8438C54.821 2.84371 56.1615 2.84377 57.5365 2.84377C57.6707 3.47539 57.8056 4.09777 57.9348 4.7214C58.9943 9.84123 60.0514 14.9616 61.1137 20.0808C61.2496 20.7366 61.4102 21.3873 61.5593 22.0402C61.5593 22.086 61.5593 22.132 61.5593 22.1778ZM55.5125 15.3073C55.02 12.9267 54.5342 10.5779 54.0484 8.2293C54.0287 8.22536 54.0087 8.22143 53.989 8.2175C53.1425 10.5721 52.2961 12.9267 51.4402 15.3073C52.8225 15.3073 54.146 15.3073 55.5125 15.3073Z" fill="black"/>
<path d="M41.4337 2.5C42.0433 2.61417 42.6578 2.70803 43.2614 2.84847C43.8124 2.97663 44.3518 3.15524 44.9374 3.32341C44.6422 4.71511 44.3541 6.07343 44.0722 7.40248C43.2998 7.17402 42.5615 6.91098 41.8026 6.74205C40.7644 6.511 39.7009 6.42295 38.6624 6.71477C38.2403 6.83339 37.8129 7.06117 37.4806 7.34833C36.9106 7.84086 36.9029 8.5499 37.4475 9.067C37.8228 9.42361 38.2678 9.71629 38.7125 9.986C39.7234 10.599 40.7849 11.1321 41.7673 11.787C42.9243 12.5582 43.7682 13.6184 43.9453 15.0521C44.2587 17.5876 43.329 19.5848 41.2169 20.9978C39.8887 21.8862 38.3859 22.2831 36.8197 22.4301C34.6331 22.6353 32.4898 22.3882 30.4004 21.6961C30.2604 21.6498 30.124 21.5918 29.9874 21.5355C29.9467 21.5186 29.9112 21.4888 29.8489 21.4496C30.144 20.0557 30.4395 18.6598 30.7434 17.2249C31.0995 17.3817 31.4338 17.5389 31.7755 17.6777C33.4078 18.341 35.0936 18.6444 36.8406 18.3143C37.2951 18.2284 37.7587 18.026 38.144 17.7656C38.98 17.2004 39.0603 16.1383 38.299 15.4745C37.7986 15.0381 37.1972 14.7159 36.6271 14.3656C35.7366 13.8187 34.7906 13.3525 33.9481 12.7404C32.8679 11.9556 32.0856 10.9093 31.9375 9.51864C31.7153 7.43643 32.4815 5.74572 34.0665 4.43201C35.4455 3.28897 37.0827 2.7817 38.8271 2.56866C38.924 2.55681 39.0184 2.52338 39.1139 2.5C39.8871 2.5 40.6604 2.5 41.4337 2.5Z" fill="black"/>
<path d="M23.4656 2.85982C23.206 3.48965 22.9602 4.09016 22.7112 4.68927C20.3334 10.4096 17.9526 16.1287 15.5843 21.8532C15.4716 22.1259 15.3335 22.1976 15.0593 22.1952C13.5585 22.1828 12.0574 22.1777 10.5568 22.1986C10.2386 22.2031 10.135 22.0905 10.0618 21.8027C8.78941 16.8027 7.49579 11.8081 6.23796 6.80437C6.00709 5.88638 5.54522 5.25942 4.67867 4.87466C3.28979 4.25788 1.84802 3.82461 0.377418 3.47244C0.312395 3.45687 0.247625 3.43982 0.186523 3.42443C0.193861 2.84412 0.193861 2.84409 0.741116 2.84408C3.36759 2.84408 5.99419 2.84348 8.62066 2.84435C9.86647 2.84475 10.7657 3.57453 11.0012 4.818C11.668 8.3382 12.3205 11.8611 12.9791 15.3828C13.0079 15.5369 13.0408 15.6901 13.0845 15.9069C13.1525 15.7779 13.2001 15.7053 13.2311 15.6262C14.8625 11.4653 16.4943 7.30461 18.1172 3.14041C18.2058 2.91309 18.315 2.83599 18.5584 2.83793C20.0819 2.85011 21.6056 2.84383 23.1293 2.84468C23.2277 2.84473 23.3261 2.8533 23.4656 2.85982Z" fill="black"/>
<path d="M21.478 22.1892C22.8502 15.7227 24.2127 9.30162 25.5785 2.86475C27.2399 2.86475 28.8818 2.86475 30.5551 2.86475C30.348 3.84513 30.1454 4.80677 29.9415 5.76813C28.8141 11.0849 27.6824 16.4007 26.5674 21.7201C26.4899 22.0897 26.3601 22.2071 25.9795 22.1996C24.6158 22.1731 23.2511 22.1892 21.8868 22.1892C21.7644 22.1892 21.6421 22.1892 21.478 22.1892Z" fill="black"/>
</svg>
