<svg width="93" height="24" viewBox="0 0 93 24" fill="none" xmlns="http://www.w3.org/2000/svg">
<g clip-path="url(#clip0_130_682)">
<path d="M22.4967 24V0H23.7124V24H22.4967ZM35.2645 3.12036V3.00012H40.1285V15.0001C40.1285 18.3138 37.4064 21.0001 34.0485 21.0001C30.6907 21.0001 27.9685 18.3138 27.9685 15.0001H32.8325C32.8325 15.6628 33.3768 16.2001 34.0485 16.2001C34.72 16.2001 35.2645 15.6628 35.2645 15.0001V3.12036ZM52.8279 9.44215C53.3658 10.017 53.781 10.7158 54.0616 11.5196C54.3374 12.3116 54.4773 13.208 54.4773 14.1841C54.4773 14.4181 54.4683 14.631 54.4508 14.8167C54.4255 15.0754 54.4016 15.1892 54.3535 15.2854L54.2192 15.5521H45.8067C45.8481 15.7422 45.9094 15.9219 45.9904 16.0885C46.1416 16.4014 46.3437 16.6767 46.5908 16.9071C46.8372 17.1368 47.1256 17.3182 47.4483 17.4469C47.7689 17.575 48.1208 17.6401 48.4943 17.6401C49.2303 17.6401 49.7906 17.4812 50.1593 17.168L50.3565 17.0007L53.9223 17.9809L53.5419 18.5336C53.2053 19.0232 52.7836 19.4574 52.2882 19.8241C51.7943 20.1896 51.2242 20.48 50.5939 20.6874C49.9633 20.895 49.257 21.0001 48.4943 21.0001C47.6278 21.0001 46.7912 20.8477 46.0079 20.5472C45.2192 20.245 44.5171 19.7977 43.9212 19.2176C43.3266 18.6397 42.8448 17.9254 42.4893 17.0948C42.133 16.2637 41.9525 15.3085 41.9525 14.2561C41.9525 13.2692 42.1245 12.3594 42.4637 11.552C42.8025 10.7468 43.2665 10.0453 43.8431 9.46711C44.42 8.88943 45.0937 8.43463 45.8459 8.11519C46.6008 7.79455 47.3939 7.63207 48.2025 7.63207C49.1692 7.63207 50.053 7.78903 50.829 8.09911C51.6141 8.41231 52.2863 8.86423 52.8279 9.44215ZM45.9196 12.5521H50.5858C50.5591 12.4434 50.525 12.3366 50.4847 12.2324C50.3884 11.985 50.2412 11.7627 50.0474 11.5714C49.8514 11.3778 49.6023 11.2194 49.3073 11.1001C49.0109 10.9806 48.6473 10.9201 48.2268 10.9201C47.8596 10.9201 47.5286 10.983 47.2438 11.107C46.9546 11.2333 46.7075 11.3998 46.5091 11.6019C46.3051 11.81 46.1397 12.0481 46.0176 12.3092C45.9797 12.3903 45.9468 12.4714 45.9196 12.5521ZM76.0549 9.53911C76.6485 10.1338 77.1174 10.8447 77.4484 11.6521C77.7784 12.459 77.9457 13.3513 77.9457 14.3041C77.9457 15.2566 77.7784 16.1523 77.4489 16.9662C77.1184 17.7822 76.649 18.4976 76.0549 19.0928C75.461 19.6873 74.7538 20.1586 73.9527 20.4939C73.1499 20.8297 72.2595 21.0001 71.3064 21.0001C70.3701 21.0001 69.4846 20.8299 68.6743 20.4946C67.8629 20.1589 67.1543 19.6866 66.5677 19.0904C65.9825 18.4959 65.5183 17.7812 65.1882 16.9662C64.8587 16.1533 64.6914 15.2576 64.6914 14.3041C64.6914 13.3501 64.859 12.458 65.189 11.6521C65.5192 10.8457 65.983 10.1355 66.5679 9.54151C67.1543 8.94559 67.8629 8.47303 68.6743 8.13727C69.4846 7.80199 70.3701 7.63207 71.3064 7.63207C72.2595 7.63207 73.1499 7.80223 73.9524 8.13799C74.754 8.47327 75.4612 8.94487 76.0549 9.53911ZM73.8916 15.7417C74.0485 15.3342 74.1278 14.8506 74.1278 14.3041C74.1278 13.7583 74.0485 13.2795 73.8926 12.8809C73.7386 12.4878 73.5288 12.1549 73.2683 11.8909C73.011 11.6302 72.7131 11.4339 72.383 11.3074C72.0433 11.1778 71.6814 11.1121 71.3064 11.1121C70.9314 11.1121 70.569 11.1778 70.2298 11.3074C69.9017 11.4332 69.6096 11.6278 69.3611 11.8863C69.1045 12.153 68.8922 12.4897 68.7297 12.8874C68.5675 13.2841 68.4855 13.7605 68.4855 14.3041C68.4855 14.8484 68.5677 15.3301 68.7307 15.735C68.8931 16.1398 69.105 16.4797 69.3611 16.7454C69.612 17.0067 69.9068 17.2066 70.2375 17.3394C70.5741 17.4752 70.9338 17.5441 71.3064 17.5441C71.6787 17.5441 72.0384 17.4752 72.3755 17.3396C72.708 17.2057 73.0086 17.0043 73.2683 16.741C73.5283 16.4778 73.7377 16.1415 73.8916 15.7417ZM90.9103 10.8243C91.1027 11.4291 91.2 12.0828 91.2 12.768V20.64H87.4063V13.248C87.4063 12.6334 87.2526 12.1095 86.9498 11.6909C86.6794 11.3177 86.1923 11.136 85.4607 11.136C84.8048 11.136 84.3306 11.3371 84.0115 11.7507C83.6611 12.2052 83.4908 12.7498 83.4908 13.416V20.64H79.6972V7.99202H83.4176V8.6897C83.6766 8.46986 83.9619 8.2877 84.2693 8.14538C84.9722 7.82066 85.7 7.65602 86.4335 7.65602C87.2295 7.65602 87.9355 7.79162 88.5319 8.05898C89.1328 8.32874 89.6379 8.7089 90.0336 9.18938C90.4188 9.65858 90.7138 10.2084 90.9103 10.824V10.8243ZM62.3451 17.3197C62.5898 17.2895 62.6601 17.2746 62.6759 17.2705L63.281 17.12V20.3646L62.9757 20.4853C62.9069 20.5127 62.7773 20.5573 62.384 20.66C62.0642 20.7436 61.6338 20.7841 61.0678 20.7841C59.839 20.7841 58.8491 20.4313 58.1261 19.7356C57.3992 19.0369 57.0307 18.0575 57.0307 16.8241V11.4241H55.5715V7.99212H57.0303L57.0307 4.41588H60.8003V7.99212H63.2566V11.4241H60.8003V16.3679C60.8003 16.7372 60.8752 17.0039 61.0165 17.1388C61.1627 17.2782 61.4412 17.3521 61.8218 17.3521C61.9952 17.3521 62.171 17.3411 62.3451 17.3197ZM1.25108 7.8702C1.14699 7.89756 1.06187 7.7886 1.11343 7.69524C2.26644 5.6082 4.249 3.97236 6.75979 3.30852C9.27033 2.64492 11.8164 3.0834 13.8724 4.32204C13.9643 4.37748 13.9458 4.5138 13.8417 4.5414L1.25108 7.8702ZM16.6876 6.97817C17.235 7.78097 17.6606 8.68433 17.9286 9.67121C18.1966 10.6581 18.2856 11.6502 18.2185 12.6155C18.2149 12.6669 18.1782 12.7103 18.1278 12.7235L1.68561 17.0706C1.63526 17.0838 1.58152 17.0644 1.55233 17.0219C1.00514 16.2189 0.579537 15.3158 0.311288 14.3289C0.043526 13.342 -0.0457281 12.3498 0.0213948 11.3843C0.0250428 11.3332 0.0617659 11.2898 0.112108 11.2763L16.5543 6.92921C16.6047 6.91601 16.6586 6.93545 16.6876 6.97817ZM16.989 16.1298C17.0928 16.1024 17.1779 16.2114 17.1264 16.3048C15.9736 18.3918 13.9908 20.0276 11.4803 20.6915C8.96949 21.3551 6.42368 20.9166 4.36768 19.678C4.27575 19.6225 4.29423 19.4862 4.39808 19.4586L16.989 16.1298Z" fill="black"/>
</g>
<defs>
<clipPath id="clip0_130_682">
<rect width="91.2" height="24" fill="white"/>
</clipPath>
</defs>
</svg>
