<svg width="110" height="20" viewBox="0 0 110 20" fill="none" xmlns="http://www.w3.org/2000/svg">
<path d="M72.6008 14.936C71.1351 14.936 70.0545 14.2202 69.7442 12.9489C69.4554 14.2202 68.3641 14.936 66.9091 14.936C64.5019 14.936 63.3143 13.3549 63.3143 11.2075V4.79736H65.6573V11.3464C65.6573 12.3827 66.0211 13.0771 67.1124 13.0771C68.1501 13.0771 68.5674 12.3827 68.5888 11.3464V4.79736H70.9211V11.3464C70.9211 12.3827 71.349 13.0771 72.3975 13.0771C73.4888 13.0771 73.8525 12.3827 73.8525 11.3464V4.79736H76.1955V11.2075C76.1955 13.3549 75.008 14.936 72.6008 14.936Z" fill="black"/>
<path d="M42.6233 7.32936C43.1476 6.59219 43.4257 5.70546 43.4257 4.79736H35.8725V6.58151H40.5371L36.5037 12.2438C35.9795 12.9809 35.7013 13.8677 35.7013 14.7758H43.2546V12.9916H38.5899L42.6233 7.32936Z" fill="black"/>
<path d="M107.682 8.31224V10.8763C107.682 11.0793 107.682 11.2823 107.682 11.4852C107.682 11.8912 107.746 12.2438 107.896 12.5109L107.907 12.5429C107.96 12.6284 108.014 12.7138 108.089 12.7779C108.131 12.8207 108.174 12.8634 108.228 12.8955C108.249 12.9168 108.281 12.9275 108.313 12.9489L108.324 12.9596L108.356 12.9809C108.645 13.1519 108.987 13.2053 109.319 13.2053C109.49 13.2053 109.661 13.1839 109.833 13.1519V14.9146C109.661 14.936 109.49 14.936 109.319 14.936C107.468 14.936 106.035 14.0172 105.564 12.5536L105.553 12.5322C105.478 12.2545 105.435 11.966 105.414 11.6562C105.414 11.6028 105.403 11.5387 105.403 11.4852V11.4746C105.403 11.4105 105.403 11.3464 105.403 11.2823C105.403 10.5985 105.403 8.31224 105.403 8.31224H103.991V6.58151H105.403V4.79736H107.682V6.57083H109.833V8.31224H107.682Z" fill="black"/>
<path d="M46.7424 10.0002C46.7424 8.6434 47.5876 8.31221 48.3686 8.31221C49.171 8.31221 50.0162 8.6434 50.0162 10.0002H46.7424ZM51.3214 7.64984C51.2786 7.6071 51.2358 7.56437 51.1824 7.52163C50.9684 7.32933 50.7223 7.16908 50.4548 7.03019C50.3265 6.96609 50.1981 6.91267 50.059 6.85926C50.0162 6.84857 49.9734 6.8272 49.9306 6.81652C49.4599 6.65627 48.9356 6.5708 48.3686 6.5708C48.2188 6.5708 48.069 6.58148 47.93 6.59217C47.8444 6.60285 47.7695 6.61353 47.6839 6.61353C47.3629 6.65627 47.0634 6.72037 46.7852 6.82721C46.6782 6.85926 46.5819 6.90199 46.4749 6.94472C46.3786 6.98746 46.2824 7.04087 46.1861 7.08361C45.9079 7.23318 45.6511 7.4148 45.4372 7.62847C44.8166 8.22675 44.4529 9.06006 44.4529 10.0536V10.7481V11.4425C44.4529 11.4745 44.4636 11.4959 44.4636 11.528C44.4743 11.8164 44.5064 12.0942 44.5706 12.3506V12.3719C44.9878 13.9424 46.4642 14.9253 48.39 14.9253C49.9734 14.9253 51.2572 14.2522 51.8885 13.1305V13.1198C51.9848 12.9489 52.0596 12.7779 52.1238 12.5963H49.738C49.5455 12.8741 49.2673 13.045 48.9677 13.1198C48.7859 13.1732 48.5826 13.1839 48.39 13.1839C48.0583 13.1839 47.7053 13.1305 47.4271 12.9595L47.395 12.9382C47.1596 12.81 46.9992 12.5963 46.8922 12.3399C46.8708 12.2758 46.8387 12.201 46.828 12.1369C46.8173 12.0942 46.8066 12.0408 46.7959 11.9873C46.7638 11.8485 46.7531 11.6775 46.7531 11.5066V11.4638H52.3164V11.4425V10.7481V10.0536C52.3057 9.08143 51.942 8.2588 51.3214 7.64984Z" fill="black"/>
<path d="M82.8932 12.1901C82.8825 12.2969 82.8504 12.3931 82.7969 12.4785C82.5829 12.8311 82.0266 13.2157 81.16 13.2157C80.5609 13.2157 80.0366 12.8738 80.0366 12.2435C80.0366 11.6132 80.5181 11.2179 81.3633 11.2179H82.8932V11.7307C82.9039 11.8803 82.9146 12.0298 82.8932 12.1901ZM85.1399 9.93587C85.1399 9.80767 85.1292 9.69015 85.1185 9.56195C85.1078 9.47648 85.0971 9.39101 85.0864 9.30555C85.0757 9.26281 85.065 9.22008 85.065 9.17734C85.065 9.13461 85.0436 9.09187 85.0436 9.05982V9.03846C84.6371 7.50003 83.1928 6.52783 81.2991 6.52783C80.2934 6.52783 79.4161 6.79492 78.7528 7.28636C78.5388 7.44661 78.3462 7.62823 78.1751 7.83122L79.8976 8.93162C80.0901 8.57907 80.3897 8.38676 80.7321 8.30129C80.7749 8.29061 80.8283 8.27993 80.8711 8.26924C81.0102 8.24788 81.1493 8.23719 81.2991 8.23719C81.4596 8.23719 81.6307 8.24788 81.7912 8.29061C81.834 8.3013 81.8661 8.31198 81.9089 8.32266C82.0266 8.35471 82.1336 8.40813 82.2406 8.47223L82.2727 8.4936L82.2834 8.50428C82.3048 8.51497 82.3262 8.53633 82.3476 8.54702C82.4973 8.64317 82.6043 8.77137 82.6792 8.92094C82.7006 8.95299 82.7113 8.97436 82.722 9.00641C82.7327 9.03846 82.7434 9.05982 82.7541 9.09187C82.7755 9.15598 82.8076 9.22008 82.8183 9.29486C82.829 9.3376 82.8397 9.39101 82.8504 9.43375C82.8611 9.4658 82.8611 9.50853 82.8718 9.54058V9.55127C82.8825 9.62605 82.8932 9.69015 82.8932 9.77562C82.8932 9.81835 82.8932 9.86109 82.8932 9.90382V9.94656H80.7855C79.1593 9.94656 77.7899 10.6517 77.7899 12.3931C77.7899 14.0383 79.2235 14.9358 80.6893 14.9358C81.4917 14.9358 82.3476 14.7007 82.8932 14.1131V14.7862H85.1399V10.0748C85.1506 10.0213 85.1506 9.97861 85.1399 9.93587Z" fill="black"/>
<path d="M29.1427 10.0002C29.1427 8.6434 29.9879 8.31221 30.7689 8.31221C31.5713 8.31221 32.4165 8.6434 32.4165 10.0002H29.1427ZM33.7217 7.64984C33.6789 7.6071 33.6361 7.56437 33.5826 7.52163C33.3686 7.32933 33.1226 7.16908 32.8551 7.03019C32.7267 6.96609 32.5983 6.91267 32.4593 6.85926C32.4165 6.84857 32.3737 6.8272 32.3309 6.81652C31.8601 6.65627 31.3359 6.5708 30.7689 6.5708C30.6191 6.5708 30.4693 6.58148 30.3302 6.59217C30.2446 6.60285 30.1697 6.61353 30.0842 6.61353C29.7632 6.65627 29.4636 6.72037 29.1855 6.82721C29.0785 6.85926 28.9822 6.90199 28.8752 6.94472C28.7789 6.98746 28.6826 7.04087 28.5863 7.08361C28.3082 7.23318 28.0514 7.4148 27.8374 7.62847C27.2169 8.22675 26.8531 9.06006 26.8531 10.0536V10.7481V11.4425C26.8531 11.4745 26.8638 11.4959 26.8638 11.528C26.8745 11.8164 26.9066 12.0942 26.9708 12.3506V12.3719C27.3881 13.9424 28.8645 14.9253 30.7903 14.9253C32.3737 14.9253 33.6575 14.2522 34.2887 13.1305V13.1198C34.3101 13.0771 34.3422 13.0236 34.3636 12.9809C34.4278 12.8527 34.4813 12.7245 34.5241 12.5963H32.1383C31.9457 12.8741 31.6676 13.045 31.368 13.1198C31.1861 13.1732 30.9828 13.1839 30.7903 13.1839C30.4586 13.1839 30.1056 13.1305 29.8274 12.9595L29.7953 12.9382C29.5599 12.81 29.3994 12.5963 29.2925 12.3399C29.2711 12.2758 29.239 12.201 29.2176 12.1369C29.2069 12.0942 29.1962 12.0408 29.1855 11.9873C29.1534 11.8485 29.1427 11.6775 29.1427 11.5066V11.4638H34.706V11.4425V10.7481V10.0536C34.706 9.08143 34.3422 8.2588 33.7217 7.64984Z" fill="black"/>
<path d="M56.0287 10.0002C56.0287 8.6434 56.8738 8.31221 57.6549 8.31221C58.4573 8.31221 59.3025 8.6434 59.3025 10.0002H56.0287ZM60.6077 7.64984C60.5649 7.6071 60.5221 7.56437 60.4686 7.52163C60.2546 7.32933 60.0086 7.16908 59.7411 7.03019C59.6127 6.96609 59.4843 6.91267 59.3452 6.85926C59.3024 6.84857 59.2597 6.8272 59.2169 6.81652C58.7461 6.65627 58.2219 6.5708 57.6549 6.5708C57.5051 6.5708 57.3553 6.58148 57.2162 6.59217C57.1306 6.60285 57.0557 6.61353 56.9701 6.61353C56.6492 6.65627 56.3496 6.72037 56.0714 6.82721C55.9645 6.85926 55.8682 6.90199 55.7612 6.94472C55.6649 6.98746 55.5686 7.04087 55.4723 7.08361C55.1942 7.23318 54.9481 7.4148 54.7234 7.62847C54.1029 8.22675 53.7391 9.06006 53.7391 10.0536V10.7481V11.4425C53.7391 11.4745 53.7498 11.4959 53.7498 11.528C53.7605 11.8164 53.7926 12.0942 53.8568 12.3506V12.3719C54.2741 13.9424 55.7505 14.9253 57.6763 14.9253C59.2597 14.9253 60.5435 14.2522 61.1747 13.1305V13.1198C61.271 12.9489 61.3459 12.7779 61.4101 12.5963H59.0136C58.821 12.8741 58.5428 13.045 58.2433 13.1198C58.0614 13.1732 57.8581 13.1839 57.6656 13.1839C57.3339 13.1839 56.9808 13.1305 56.7027 12.9595L56.6706 12.9382C56.4352 12.81 56.2747 12.5963 56.1677 12.3399C56.1463 12.2758 56.1142 12.201 56.0928 12.1369C56.0821 12.0942 56.0715 12.0408 56.0608 11.9873C56.0287 11.8485 56.018 11.6775 56.018 11.5066V11.4638H61.5813V11.4425V10.7481V10.0536C61.592 9.08143 61.2282 8.2588 60.6077 7.64984Z" fill="black"/>
<path d="M97.3792 10.0002C97.3792 8.6434 98.2244 8.31221 99.0054 8.31221C99.8078 8.31221 100.653 8.6434 100.653 10.0002H97.3792ZM101.958 7.64984C101.915 7.6071 101.873 7.56437 101.819 7.52163C101.605 7.32933 101.359 7.16908 101.092 7.03019C100.963 6.96609 100.835 6.91267 100.696 6.85926C100.653 6.84857 100.61 6.8272 100.567 6.81652C100.097 6.65627 99.5725 6.5708 99.0054 6.5708C98.8557 6.5708 98.7059 6.58148 98.5668 6.59217C98.4812 6.60285 98.4063 6.61353 98.3207 6.61353C97.9998 6.65627 97.7002 6.72037 97.422 6.82721C97.315 6.85926 97.2188 6.90199 97.1118 6.94472C97.0155 6.98746 96.9192 7.04087 96.8229 7.08361C96.5447 7.23318 96.288 7.4148 96.074 7.62847C95.4535 8.22675 95.0897 9.06006 95.0897 10.0536V10.7481V11.4425C95.0897 11.4745 95.1004 11.4959 95.1004 11.528C95.1111 11.8164 95.1432 12.0942 95.2074 12.3506V12.3719C95.6247 13.9424 97.1011 14.9253 99.0268 14.9253C100.61 14.9253 101.894 14.2522 102.525 13.1305V13.1198C102.622 12.9489 102.696 12.7779 102.761 12.5963H100.375C100.182 12.8741 99.9041 13.045 99.6046 13.1198C99.4227 13.1732 99.2194 13.1839 99.0268 13.1839C98.6952 13.1839 98.3421 13.1305 98.064 12.9595L98.0319 12.9382C97.7965 12.81 97.636 12.5963 97.529 12.3399C97.5076 12.2758 97.4755 12.201 97.4648 12.1369C97.4541 12.0942 97.4434 12.0408 97.4327 11.9873C97.4006 11.8485 97.3899 11.6775 97.3899 11.5066V11.4638H102.953V11.4425V10.7481V10.0536C102.943 9.08143 102.579 8.2588 101.958 7.64984Z" fill="black"/>
<path d="M87.9859 14.7758H89.2911V4.79736H87.0123V13.8142C87.0123 14.3484 87.4403 14.7758 87.9859 14.7758Z" fill="black"/>
<path d="M91.9442 14.7758H93.2494V4.79736H90.9706V13.8142C90.9706 14.3484 91.4092 14.7758 91.9442 14.7758Z" fill="black"/>
<path d="M7.77771 12.4039C7.77771 13.109 8.34474 13.6752 9.05085 13.6752H19.2146V11.1432H9.05085C8.34474 11.1325 7.77771 11.6988 7.77771 12.4039Z" fill="black"/>
<path d="M19.204 6.05762H9.04023C8.33412 6.05762 7.76709 6.62384 7.76709 7.32896C7.76709 8.03407 8.33412 8.60029 9.04023 8.60029H19.204V6.05762Z" fill="black"/>
<path d="M4.53595 5.18173C4.35407 5.51292 4.26848 5.88684 4.26848 6.26077C4.25778 7.22228 4.85691 7.94876 5.64861 8.4402C6.23704 8.82481 6.80407 9.27352 6.80407 10C6.80407 10.7265 6.23704 11.1752 5.64861 11.5598C4.86761 12.0512 4.26848 12.7777 4.26848 13.7392C4.26848 14.1131 4.35407 14.4871 4.53595 14.8183C5.10298 15.8866 6.29053 16.1964 7.4139 16.1964H20.4663V19.9998H7.21062C7.02874 19.9998 6.84687 19.9998 6.65429 19.9998C5.09228 20.0104 3.45538 19.6579 2.20364 18.675C1.48682 18.1195 0.930493 17.3823 0.620231 16.5169C-0.10728 14.5619 0.331366 12.6495 1.83988 11.2286C1.98966 11.079 2.15014 10.9401 2.28923 10.7799C2.43901 10.609 2.57809 10.4167 2.64228 10.1923C2.66368 10.1282 2.67438 10.0855 2.67438 10C2.67438 9.91453 2.66368 9.87179 2.64228 9.80769C2.57809 9.58334 2.43901 9.39104 2.28923 9.2201C2.15014 9.05985 1.98966 8.92096 1.83988 8.77139C0.331366 7.35048 -0.10728 5.42745 0.620231 3.48305C0.941191 2.62837 1.48682 1.88053 2.21434 1.32498C3.46608 0.352784 5.10298 -0.0104553 6.66499 0.000228252C6.84687 0.000228252 7.02874 0.000228252 7.22132 0.000228252H20.477V3.80356H7.4246C6.29054 3.80356 5.10298 4.11338 4.53595 5.18173Z" fill="black"/>
</svg>
